<?xml version="1.0" encoding="UTF-8"?>
<svg version="1.1" xmlns="http://www.w3.org/2000/svg" width="2048" height="2048">
<path d="M0 0 C1.9550963 -0.03092256 3.90947805 -0.10003168 5.86352539 -0.17114258 C16.00417334 -0.37413573 25.75929549 1.21686459 35.7019043 3.03344727 C37.20801624 3.30437456 38.71418952 3.57496104 40.22041988 3.84522915 C55.76126087 6.64420545 71.27799777 9.57344202 86.79082608 12.52304006 C90.89499121 13.30288681 94.99964432 14.08015791 99.10423279 14.85777283 C106.1595131 16.19473654 113.21450405 17.53321771 120.26928711 18.87280273 C130.57490526 20.8296539 140.88100349 22.78396745 151.18721223 24.73770547 C167.69109008 27.86637269 184.19465068 30.99670964 200.69799805 34.12817383 C221.28330182 38.03414284 241.86916978 41.93712986 262.45532227 45.83862305 C264.02383498 46.13589288 265.59234758 46.43316333 267.16086006 46.73043442 C273.38212063 47.9095115 279.60338249 49.08858179 285.82465076 50.26761818 C295.94835026 52.18624502 306.07198795 54.10519772 316.19558632 56.02435803 C364.04272577 65.09486565 411.89125521 74.15802131 459.74047852 83.2175293 C461.05776947 83.46693834 461.05776947 83.46693834 462.40167236 83.72138596 C479.31520712 86.92370275 496.22876152 90.1259158 513.14233398 93.32803345 C535.30719684 97.52434084 557.47201226 101.72089865 579.63675857 105.91782165 C584.91816415 106.91785883 590.19957699 107.91785767 595.48099589 108.91782451 C599.88292262 109.75127235 604.28484604 110.58473763 608.68676758 111.41821289 C609.5577636 111.58313028 610.42875962 111.74804767 611.32614946 111.91796255 C623.53037226 114.22878639 635.73442842 116.54048857 647.93837976 118.85274553 C655.76299855 120.33522378 663.58766874 121.81743064 671.41235352 123.29956055 C672.70564213 123.5445397 672.70564213 123.5445397 674.02505779 123.79446793 C700.25520514 128.76295089 726.48803925 133.71706117 752.72250843 138.66267073 C759.64955506 139.96862244 766.57642521 141.27550691 773.50317383 142.58303833 C774.95406355 142.85691559 774.95406355 142.85691559 776.43426418 143.13632572 C781.27220262 144.04959812 786.11011676 144.96299917 790.94801331 145.87649345 C801.24443648 147.82047412 811.54144144 149.76131681 821.83923173 151.69804257 C828.829108 153.01290606 835.81829197 154.33140773 842.80696273 155.65266353 C846.82561477 156.4122876 850.84455021 157.1703117 854.86435699 157.92380333 C901.82381562 166.72926721 901.82381562 166.72926721 914.67797852 172.2175293 C915.90278931 172.72509766 915.90278931 172.72509766 917.15234375 173.24291992 C933.01939855 179.98544453 946.74271057 189.56300843 959.24047852 201.4050293 C960.58625977 202.65413086 960.58625977 202.65413086 961.95922852 203.9284668 C976.58549959 217.93846241 986.70726804 235.07994405 993.17797852 254.2175293 C993.4605249 255.05227783 993.74307129 255.88702637 994.03417969 256.74707031 C1003.14814488 285.25161831 997.51226041 314.96189165 992.21417236 343.57910156 C991.41181074 347.94231121 990.63763638 352.31051666 989.86157227 356.6784668 C988.99085868 361.57415638 988.11771282 366.46925099 987.22253418 371.36053467 C987.02232414 372.45736572 987.02232414 372.45736572 986.81806946 373.57635498 C986.45809023 375.54486852 986.0961213 377.51301791 985.73400879 379.48114014 C985.18499916 382.23950515 985.18499916 382.23950515 985.24047852 384.4050293 C986.34294922 384.85604004 987.44541992 385.30705078 988.58129883 385.77172852 C989.32195084 386.07472366 990.06260284 386.37771881 990.82569885 386.68989563 C992.52177107 387.38374099 994.21784663 388.07757817 995.91392517 388.77140808 C1000.77586449 390.76034008 1005.63773985 392.74942822 1010.49951172 394.73876953 C1021.41934996 399.20675302 1032.34038203 403.67178334 1043.26358032 408.13154602 C1050.52612563 411.09744829 1057.7852086 414.07175035 1065.0430603 417.04911804 C1070.6017293 419.3281205 1076.16550576 421.59413525 1081.73286438 423.8518219 C1085.43805402 425.35666042 1089.13961805 426.87027688 1092.84048462 428.38571167 C1094.56908229 429.09138403 1096.29914518 429.79348094 1098.03085327 430.4914856 C1119.13520161 439.0031119 1136.62091341 449.73269329 1153.24047852 465.4050293 C1153.9146582 466.02635742 1154.58883789 466.64768555 1155.28344727 467.2878418 C1177.6923507 488.66799318 1193.75287853 521.60914714 1194.54125977 552.7331543 C1194.55571075 555.37374264 1194.55943164 558.01440929 1194.55297852 560.6550293 C1194.5690918 561.95827148 1194.58520508 563.26151367 1194.60180664 564.60424805 C1194.60836522 577.83946256 1192.0480738 590.06304592 1187.74047852 602.5300293 C1187.36866455 603.62653809 1186.99685059 604.72304688 1186.61376953 605.8527832 C1180.25758013 624.40920677 1173.52089173 642.83687872 1166.87605286 661.29121399 C1162.98972562 672.08985681 1159.14130854 682.90175139 1155.30297852 693.7175293 C1149.38305247 710.39048911 1143.44277831 727.05609963 1137.49047852 743.7175293 C1137.07031464 744.89374847 1136.65015076 746.06996765 1136.21725464 747.28182983 C1131.98766602 759.12207178 1127.75665301 770.96180383 1123.5236969 782.80084229 C1121.47047524 788.54373232 1119.41781223 794.28682188 1117.36547852 800.0300293 C1116.95689606 801.17336731 1116.5483136 802.31670532 1116.12734985 803.49468994 C1109.21569381 822.83945363 1102.34321048 842.19794595 1095.48059082 861.5601387 C1088.42025816 881.47955085 1081.31936361 901.38400203 1074.17816162 921.27459717 C1068.86255456 936.08049146 1063.56702652 950.89322364 1058.30297852 965.7175293 C1052.38219931 982.39018723 1046.44277902 999.05609763 1040.49047852 1015.7175293 C1040.07031464 1016.89374847 1039.65015076 1018.06996765 1039.21725464 1019.28182983 C1034.98766602 1031.12207178 1030.75665301 1042.96180383 1026.5236969 1054.80084229 C1024.47047524 1060.54373232 1022.41781223 1066.28682188 1020.36547852 1072.0300293 C1019.75260483 1073.74503632 1019.75260483 1073.74503632 1019.12734985 1075.49468994 C1012.21569381 1094.83945363 1005.34321048 1114.19794595 998.48059082 1133.5601387 C991.42025816 1153.47955085 984.31936361 1173.38400203 977.17816162 1193.27459717 C971.86255456 1208.08049146 966.56702652 1222.89322364 961.30297852 1237.7175293 C955.38219931 1254.39018723 949.44277902 1271.05609763 943.49047852 1287.7175293 C943.07031464 1288.89374847 942.65015076 1290.06996765 942.21725464 1291.28182983 C937.98766602 1303.12207178 933.75665301 1314.96180383 929.5236969 1326.80084229 C927.47047524 1332.54373232 925.41781223 1338.28682188 923.36547852 1344.0300293 C922.75260483 1345.74503632 922.75260483 1345.74503632 922.12734985 1347.49468994 C915.21479154 1366.84197896 908.34132983 1386.20297064 901.4779129 1405.56772614 C894.55422816 1425.10201178 887.58970515 1444.62121311 880.58346558 1464.12606812 C874.0911649 1482.20332997 867.65578937 1500.30035182 861.24047852 1518.4050293 C854.39986928 1537.709097 847.53438892 1557.00384333 840.61547852 1576.2800293 C840.22953522 1577.35535919 839.84359192 1578.43068909 839.44595337 1579.53860474 C837.88801987 1583.87925659 836.33004738 1588.21989446 834.77198792 1592.5605011 C830.31341913 1604.9840667 825.86834254 1617.41244669 821.42797852 1629.8425293 C821.01707977 1630.99272552 820.60618103 1632.14292175 820.18283081 1633.32797241 C813.25288067 1652.73098636 806.36112993 1672.1474247 799.47811508 1691.5671196 C792.55431875 1711.10159196 785.5897773 1730.62101223 778.58346558 1750.12606812 C772.09116539 1768.20332861 765.65558249 1786.30027931 759.24047852 1804.4050293 C751.69094399 1825.71137688 744.0998757 1847.00220922 736.45043945 1868.27294922 C732.3193303 1879.76844444 728.21990657 1891.27446264 724.16220093 1902.79603958 C723.41424101 1904.91920269 722.66551159 1907.04209279 721.91650391 1909.16488647 C721.67026276 1909.86282003 721.42402161 1910.56075359 721.1703186 1911.27983665 C720.67471761 1912.68453012 720.17909186 1914.08921484 719.68344116 1915.49389076 C718.47966063 1918.90690932 717.27833059 1922.32075262 716.08251953 1925.73657227 C702.86763624 1963.47830072 687.66836417 1994.71180203 650.25610352 2013.5534668 C646.03758024 2015.56656784 641.72409546 2017.20712064 637.30297852 2018.7175293 C636.63693604 2018.94786865 635.97089355 2019.17820801 635.28466797 2019.41552734 C622.39105409 2023.55637564 609.45737572 2024.96529116 595.99047852 2024.8425293 C595.27536102 2024.83948792 594.56024353 2024.83644653 593.82345581 2024.83331299 C568.83131122 2024.67691876 547.02981002 2017.11439714 524.25262451 2007.40426636 C521.51302021 2006.23635048 518.77003305 2005.07670689 516.02612305 2003.91894531 C513.10007021 2002.68415566 510.17425811 2001.44882305 507.2494812 2000.21101379 C497.23105579 1995.97117307 487.19085573 1991.78414876 477.14727783 1987.60430908 C474.1010903 1986.33654118 471.05526957 1985.0678955 468.00952148 1983.79907227 C454.42639352 1978.14156187 440.83596063 1972.5017968 427.24215698 1966.86999512 C407.26691842 1958.59391011 387.31004076 1950.27386942 367.35327148 1941.95336914 C361.30688579 1939.43256575 355.26008106 1936.91276883 349.21313477 1934.39331055 C348.22454468 1933.98141479 347.23595459 1933.56951904 346.21740723 1933.1451416 C343.22510489 1931.89842013 340.23279352 1930.65172036 337.24047852 1929.4050293 C326.18019926 1924.79697458 315.11994129 1920.18887039 304.06082153 1915.57803345 C284.29431937 1907.33689259 264.52549248 1899.10164343 244.74047852 1890.9050293 C230.04608006 1884.81737556 215.35931722 1878.71161304 200.67797852 1872.5925293 C199.67789764 1872.17570892 198.67781677 1871.75888855 197.64743042 1871.32943726 C189.48730347 1867.92822922 181.32756833 1864.5260816 173.16784668 1861.12390137 C166.04640508 1858.15467607 158.92481199 1855.18581454 151.80297852 1852.2175293 C150.30201126 1851.59193619 150.30201126 1851.59193619 148.77072144 1850.95370483 C135.09992021 1845.25642125 121.42322104 1839.57357019 107.74047852 1833.9050293 C86.9322185 1825.28450072 66.14204907 1816.6207555 45.35327148 1807.95336914 C39.30688579 1805.43256575 33.26008106 1802.91276883 27.21313477 1800.39331055 C26.22454468 1799.98141479 25.23595459 1799.56951904 24.21740723 1799.1451416 C21.22510489 1797.89842013 18.23279352 1796.65172036 15.24047852 1795.4050293 C4.18019926 1790.79697458 -6.88005871 1786.18887039 -17.93917847 1781.57803345 C-37.70568063 1773.33689259 -57.47450752 1765.10164343 -77.25952148 1756.9050293 C-98.0677815 1748.28450072 -118.85795093 1739.6207555 -139.64672852 1730.95336914 C-148.68761496 1727.18412609 -157.72946095 1723.41718609 -166.77124023 1719.65008545 C-169.75434683 1718.4071853 -172.73741018 1717.16418141 -175.72045898 1715.92114258 C-186.98044037 1711.22914784 -198.24095752 1706.53844285 -209.50216675 1701.84939575 C-214.63016218 1699.71396906 -219.75777731 1697.57763815 -224.88452148 1695.43920898 C-225.86282928 1695.03115021 -226.84113708 1694.62309143 -227.84909058 1694.20266724 C-229.77531376 1693.39921531 -231.70152252 1692.59572879 -233.62771606 1691.79220581 C-238.71302138 1689.67180704 -243.80107357 1687.55828053 -248.89295959 1685.45373535 C-275.11375607 1674.61573119 -298.47729587 1663.79827633 -318.75952148 1643.4050293 C-319.62963867 1642.53491211 -320.49975586 1641.66479492 -321.39624023 1640.76831055 C-348.66450931 1612.13020692 -364.00822383 1570.24098869 -363.2038269 1531.0718689 C-362.73439776 1515.89649515 -359.76475353 1500.93852186 -357.11852717 1486.02455378 C-356.29166005 1481.33134416 -355.49443912 1476.63308437 -354.6934967 1471.93539429 C-353.31706019 1463.88521797 -351.92308745 1455.8382509 -350.51641846 1447.79330444 C-348.47097996 1436.09413879 -346.45466562 1424.39009044 -344.44563627 1412.68462384 C-341.47252275 1395.36360943 -338.48521661 1378.04509626 -335.48480844 1360.72879016 C-331.70555741 1338.91645472 -327.96415212 1317.09800627 -324.26342773 1295.2722168 C-324.01375904 1293.80011716 -323.76408838 1292.32801785 -323.51441574 1290.85591888 C-322.53189061 1285.06220768 -321.54973302 1279.26843428 -320.56821632 1273.47455215 C-318.0874345 1258.83147336 -315.59504335 1244.19037578 -313.10206223 1229.54936981 C-311.78708794 1221.82652583 -310.47274934 1214.10357364 -309.15844727 1206.38061523 C-308.95631272 1205.19287246 -308.95631272 1205.19287246 -308.75009465 1203.98113489 C-305.11401014 1182.61504702 -301.48163216 1161.24832893 -297.84936523 1139.8815918 C-297.59194294 1138.3673135 -297.59194294 1138.3673135 -297.32932019 1136.82244372 C-295.2023612 1124.31062659 -293.07550675 1111.79879169 -290.94868702 1099.28695089 C-288.95413831 1087.55326859 -286.95949517 1075.81960234 -284.96484375 1064.0859375 C-284.78424026 1063.02352549 -284.60363678 1061.96111348 -284.41756046 1060.86650717 C-283.68610947 1056.5636988 -282.95465834 1052.26089044 -282.22320622 1047.95808226 C-281.12016178 1041.46935813 -280.01712559 1034.98063261 -278.91409582 1028.49190599 C-274.04776052 999.86502233 -269.18105116 971.2382023 -264.31404305 942.61143303 C-249.25793541 854.05434633 -234.20587677 765.49657347 -219.16078568 676.93761444 C-210.8520705 628.03055844 -202.54256908 579.12363663 -194.22827148 530.2175293 C-193.96550808 528.6719002 -193.96550808 528.6719002 -193.69743633 527.09504628 C-190.17927079 506.40047632 -186.66091253 485.70593914 -183.14206481 465.01148516 C-181.21757153 453.69346544 -179.29318369 442.3754278 -177.36889648 431.05737305 C-177.19515912 430.03551116 -177.02142176 429.01364927 -176.84241962 427.96082187 C-171.5986841 397.11868625 -166.35968774 366.27574818 -161.12402964 335.43224037 C-159.73777092 327.2657811 -158.351311 319.09935602 -156.96472168 310.93295288 C-156.76985279 309.78525189 -156.57498389 308.6375509 -156.37420988 307.45507109 C-155.59143735 302.84486238 -154.80866129 298.23465426 -154.02586269 293.62444997 C-151.9587918 281.45060708 -149.89211986 269.27669685 -147.8269043 257.10253906 C-144.11289041 235.21002255 -140.39343588 213.3184566 -136.65912628 191.42939186 C-134.85890132 180.8744049 -133.06704462 170.31805055 -131.28437066 159.76008493 C-130.00493435 152.18529821 -128.7181525 144.61178193 -127.42597175 137.039159 C-126.67489988 132.63596179 -125.92715031 128.23226918 -125.18851471 123.82696724 C-124.50895093 119.77431594 -123.81967885 115.72343151 -123.1232233 111.67365003 C-122.87408026 110.21505613 -122.6283113 108.75588031 -122.38654232 107.29604602 C-120.15396513 93.83723601 -117.1174488 80.03468335 -111.07202148 67.7175293 C-110.56783691 66.67483887 -110.56783691 66.67483887 -110.0534668 65.61108398 C-96.10226436 37.7468319 -70.11957726 16.76959306 -40.86108398 6.6862793 C-27.48621463 2.35549271 -14.05724776 0.16382196 0 0 Z " fill="#FEFEFE" transform="translate(613.759521484375,11.594970703125)"/>
<path d="M0 0 C1.9550963 -0.03092256 3.90947805 -0.10003168 5.86352539 -0.17114258 C16.00417334 -0.37413573 25.75929549 1.21686459 35.7019043 3.03344727 C37.20801624 3.30437456 38.71418952 3.57496104 40.22041988 3.84522915 C55.76126087 6.64420545 71.27799777 9.57344202 86.79082608 12.52304006 C90.89499121 13.30288681 94.99964432 14.08015791 99.10423279 14.85777283 C106.1595131 16.19473654 113.21450405 17.53321771 120.26928711 18.87280273 C130.57490526 20.8296539 140.88100349 22.78396745 151.18721223 24.73770547 C167.69109008 27.86637269 184.19465068 30.99670964 200.69799805 34.12817383 C221.28330182 38.03414284 241.86916978 41.93712986 262.45532227 45.83862305 C264.02383498 46.13589288 265.59234758 46.43316333 267.16086006 46.73043442 C273.38212063 47.9095115 279.60338249 49.08858179 285.82465076 50.26761818 C295.94835026 52.18624502 306.07198795 54.10519772 316.19558632 56.02435803 C364.04272577 65.09486565 411.89125521 74.15802131 459.74047852 83.2175293 C461.05776947 83.46693834 461.05776947 83.46693834 462.40167236 83.72138596 C479.31520712 86.92370275 496.22876152 90.1259158 513.14233398 93.32803345 C535.30719684 97.52434084 557.47201226 101.72089865 579.63675857 105.91782165 C584.91816415 106.91785883 590.19957699 107.91785767 595.48099589 108.91782451 C599.88292262 109.75127235 604.28484604 110.58473763 608.68676758 111.41821289 C609.5577636 111.58313028 610.42875962 111.74804767 611.32614946 111.91796255 C623.53037226 114.22878639 635.73442842 116.54048857 647.93837976 118.85274553 C655.76299855 120.33522378 663.58766874 121.81743064 671.41235352 123.29956055 C672.70564213 123.5445397 672.70564213 123.5445397 674.02505779 123.79446793 C700.25520514 128.76295089 726.48803925 133.71706117 752.72250843 138.66267073 C759.64955506 139.96862244 766.57642521 141.27550691 773.50317383 142.58303833 C774.95406355 142.85691559 774.95406355 142.85691559 776.43426418 143.13632572 C781.27220262 144.04959812 786.11011676 144.96299917 790.94801331 145.87649345 C801.24443648 147.82047412 811.54144144 149.76131681 821.83923173 151.69804257 C828.829108 153.01290606 835.81829197 154.33140773 842.80696273 155.65266353 C846.82561477 156.4122876 850.84455021 157.1703117 854.86435699 157.92380333 C901.82381562 166.72926721 901.82381562 166.72926721 914.67797852 172.2175293 C915.90278931 172.72509766 915.90278931 172.72509766 917.15234375 173.24291992 C933.01939855 179.98544453 946.74271057 189.56300843 959.24047852 201.4050293 C960.58625977 202.65413086 960.58625977 202.65413086 961.95922852 203.9284668 C976.58549959 217.93846241 986.70726804 235.07994405 993.17797852 254.2175293 C993.4605249 255.05227783 993.74307129 255.88702637 994.03417969 256.74707031 C1003.14814488 285.25161831 997.51226041 314.96189165 992.21417236 343.57910156 C991.41181074 347.94231121 990.63763638 352.31051666 989.86157227 356.6784668 C988.99085868 361.57415638 988.11771282 366.46925099 987.22253418 371.36053467 C987.02232414 372.45736572 987.02232414 372.45736572 986.81806946 373.57635498 C986.45809023 375.54486852 986.0961213 377.51301791 985.73400879 379.48114014 C985.18499916 382.23950515 985.18499916 382.23950515 985.24047852 384.4050293 C986.34294922 384.85604004 987.44541992 385.30705078 988.58129883 385.77172852 C989.32195084 386.07472366 990.06260284 386.37771881 990.82569885 386.68989563 C992.52177107 387.38374099 994.21784663 388.07757817 995.91392517 388.77140808 C1000.77586449 390.76034008 1005.63773985 392.74942822 1010.49951172 394.73876953 C1021.41934996 399.20675302 1032.34038203 403.67178334 1043.26358032 408.13154602 C1050.52612563 411.09744829 1057.7852086 414.07175035 1065.0430603 417.04911804 C1070.6017293 419.3281205 1076.16550576 421.59413525 1081.73286438 423.8518219 C1085.43805402 425.35666042 1089.13961805 426.87027688 1092.84048462 428.38571167 C1094.56908229 429.09138403 1096.29914518 429.79348094 1098.03085327 430.4914856 C1119.13520161 439.0031119 1136.62091341 449.73269329 1153.24047852 465.4050293 C1153.9146582 466.02635742 1154.58883789 466.64768555 1155.28344727 467.2878418 C1177.6923507 488.66799318 1193.75287853 521.60914714 1194.54125977 552.7331543 C1194.55571075 555.37374264 1194.55943164 558.01440929 1194.55297852 560.6550293 C1194.5690918 561.95827148 1194.58520508 563.26151367 1194.60180664 564.60424805 C1194.60836522 577.83946256 1192.0480738 590.06304592 1187.74047852 602.5300293 C1187.36866455 603.62653809 1186.99685059 604.72304688 1186.61376953 605.8527832 C1180.25758013 624.40920677 1173.52089173 642.83687872 1166.87605286 661.29121399 C1162.98972562 672.08985681 1159.14130854 682.90175139 1155.30297852 693.7175293 C1149.38305247 710.39048911 1143.44277831 727.05609963 1137.49047852 743.7175293 C1137.07031464 744.89374847 1136.65015076 746.06996765 1136.21725464 747.28182983 C1131.98766602 759.12207178 1127.75665301 770.96180383 1123.5236969 782.80084229 C1121.47047524 788.54373232 1119.41781223 794.28682188 1117.36547852 800.0300293 C1116.95689606 801.17336731 1116.5483136 802.31670532 1116.12734985 803.49468994 C1109.21569381 822.83945363 1102.34321048 842.19794595 1095.48059082 861.5601387 C1088.42025816 881.47955085 1081.31936361 901.38400203 1074.17816162 921.27459717 C1068.86255456 936.08049146 1063.56702652 950.89322364 1058.30297852 965.7175293 C1052.38219931 982.39018723 1046.44277902 999.05609763 1040.49047852 1015.7175293 C1040.07031464 1016.89374847 1039.65015076 1018.06996765 1039.21725464 1019.28182983 C1034.98766602 1031.12207178 1030.75665301 1042.96180383 1026.5236969 1054.80084229 C1024.47047524 1060.54373232 1022.41781223 1066.28682188 1020.36547852 1072.0300293 C1019.75260483 1073.74503632 1019.75260483 1073.74503632 1019.12734985 1075.49468994 C1012.21569381 1094.83945363 1005.34321048 1114.19794595 998.48059082 1133.5601387 C991.42025816 1153.47955085 984.31936361 1173.38400203 977.17816162 1193.27459717 C971.86255456 1208.08049146 966.56702652 1222.89322364 961.30297852 1237.7175293 C955.38219931 1254.39018723 949.44277902 1271.05609763 943.49047852 1287.7175293 C943.07031464 1288.89374847 942.65015076 1290.06996765 942.21725464 1291.28182983 C937.98766602 1303.12207178 933.75665301 1314.96180383 929.5236969 1326.80084229 C927.47047524 1332.54373232 925.41781223 1338.28682188 923.36547852 1344.0300293 C922.75260483 1345.74503632 922.75260483 1345.74503632 922.12734985 1347.49468994 C915.21479154 1366.84197896 908.34132983 1386.20297064 901.4779129 1405.56772614 C894.55422816 1425.10201178 887.58970515 1444.62121311 880.58346558 1464.12606812 C874.0911649 1482.20332997 867.65578937 1500.30035182 861.24047852 1518.4050293 C854.39986928 1537.709097 847.53438892 1557.00384333 840.61547852 1576.2800293 C840.22953522 1577.35535919 839.84359192 1578.43068909 839.44595337 1579.53860474 C837.88801987 1583.87925659 836.33004738 1588.21989446 834.77198792 1592.5605011 C830.31341913 1604.9840667 825.86834254 1617.41244669 821.42797852 1629.8425293 C821.01707977 1630.99272552 820.60618103 1632.14292175 820.18283081 1633.32797241 C813.25288067 1652.73098636 806.36112993 1672.1474247 799.47811508 1691.5671196 C792.55431875 1711.10159196 785.5897773 1730.62101223 778.58346558 1750.12606812 C772.09116539 1768.20332861 765.65558249 1786.30027931 759.24047852 1804.4050293 C751.69094399 1825.71137688 744.0998757 1847.00220922 736.45043945 1868.27294922 C732.3193303 1879.76844444 728.21990657 1891.27446264 724.16220093 1902.79603958 C723.41424101 1904.91920269 722.66551159 1907.04209279 721.91650391 1909.16488647 C721.67026276 1909.86282003 721.42402161 1910.56075359 721.1703186 1911.27983665 C720.67471761 1912.68453012 720.17909186 1914.08921484 719.68344116 1915.49389076 C718.47966063 1918.90690932 717.27833059 1922.32075262 716.08251953 1925.73657227 C702.86763624 1963.47830072 687.66836417 1994.71180203 650.25610352 2013.5534668 C646.03758024 2015.56656784 641.72409546 2017.20712064 637.30297852 2018.7175293 C636.63693604 2018.94786865 635.97089355 2019.17820801 635.28466797 2019.41552734 C622.39105409 2023.55637564 609.45737572 2024.96529116 595.99047852 2024.8425293 C595.27536102 2024.83948792 594.56024353 2024.83644653 593.82345581 2024.83331299 C568.83131122 2024.67691876 547.02981002 2017.11439714 524.25262451 2007.40426636 C521.51302021 2006.23635048 518.77003305 2005.07670689 516.02612305 2003.91894531 C513.10007021 2002.68415566 510.17425811 2001.44882305 507.2494812 2000.21101379 C497.23105579 1995.97117307 487.19085573 1991.78414876 477.14727783 1987.60430908 C474.1010903 1986.33654118 471.05526957 1985.0678955 468.00952148 1983.79907227 C454.42639352 1978.14156187 440.83596063 1972.5017968 427.24215698 1966.86999512 C407.26691842 1958.59391011 387.31004076 1950.27386942 367.35327148 1941.95336914 C361.30688579 1939.43256575 355.26008106 1936.91276883 349.21313477 1934.39331055 C348.22454468 1933.98141479 347.23595459 1933.56951904 346.21740723 1933.1451416 C343.22510489 1931.89842013 340.23279352 1930.65172036 337.24047852 1929.4050293 C326.18019926 1924.79697458 315.11994129 1920.18887039 304.06082153 1915.57803345 C284.29431937 1907.33689259 264.52549248 1899.10164343 244.74047852 1890.9050293 C230.04608006 1884.81737556 215.35931722 1878.71161304 200.67797852 1872.5925293 C199.67789764 1872.17570892 198.67781677 1871.75888855 197.64743042 1871.32943726 C189.48730347 1867.92822922 181.32756833 1864.5260816 173.16784668 1861.12390137 C166.04640508 1858.15467607 158.92481199 1855.18581454 151.80297852 1852.2175293 C150.30201126 1851.59193619 150.30201126 1851.59193619 148.77072144 1850.95370483 C135.09992021 1845.25642125 121.42322104 1839.57357019 107.74047852 1833.9050293 C86.9322185 1825.28450072 66.14204907 1816.6207555 45.35327148 1807.95336914 C39.30688579 1805.43256575 33.26008106 1802.91276883 27.21313477 1800.39331055 C26.22454468 1799.98141479 25.23595459 1799.56951904 24.21740723 1799.1451416 C21.22510489 1797.89842013 18.23279352 1796.65172036 15.24047852 1795.4050293 C4.18019926 1790.79697458 -6.88005871 1786.18887039 -17.93917847 1781.57803345 C-37.70568063 1773.33689259 -57.47450752 1765.10164343 -77.25952148 1756.9050293 C-98.0677815 1748.28450072 -118.85795093 1739.6207555 -139.64672852 1730.95336914 C-148.68761496 1727.18412609 -157.72946095 1723.41718609 -166.77124023 1719.65008545 C-169.75434683 1718.4071853 -172.73741018 1717.16418141 -175.72045898 1715.92114258 C-186.98044037 1711.22914784 -198.24095752 1706.53844285 -209.50216675 1701.84939575 C-214.63016218 1699.71396906 -219.75777731 1697.57763815 -224.88452148 1695.43920898 C-225.86282928 1695.03115021 -226.84113708 1694.62309143 -227.84909058 1694.20266724 C-229.77531376 1693.39921531 -231.70152252 1692.59572879 -233.62771606 1691.79220581 C-238.71302138 1689.67180704 -243.80107357 1687.55828053 -248.89295959 1685.45373535 C-275.11375607 1674.61573119 -298.47729587 1663.79827633 -318.75952148 1643.4050293 C-319.62963867 1642.53491211 -320.49975586 1641.66479492 -321.39624023 1640.76831055 C-348.66450931 1612.13020692 -364.00822383 1570.24098869 -363.2038269 1531.0718689 C-362.73439776 1515.89649515 -359.76475353 1500.93852186 -357.11852717 1486.02455378 C-356.29166005 1481.33134416 -355.49443912 1476.63308437 -354.6934967 1471.93539429 C-353.31706019 1463.88521797 -351.92308745 1455.8382509 -350.51641846 1447.79330444 C-348.47097996 1436.09413879 -346.45466562 1424.39009044 -344.44563627 1412.68462384 C-341.47252275 1395.36360943 -338.48521661 1378.04509626 -335.48480844 1360.72879016 C-331.70555741 1338.91645472 -327.96415212 1317.09800627 -324.26342773 1295.2722168 C-324.01375904 1293.80011716 -323.76408838 1292.32801785 -323.51441574 1290.85591888 C-322.53189061 1285.06220768 -321.54973302 1279.26843428 -320.56821632 1273.47455215 C-318.0874345 1258.83147336 -315.59504335 1244.19037578 -313.10206223 1229.54936981 C-311.78708794 1221.82652583 -310.47274934 1214.10357364 -309.15844727 1206.38061523 C-308.95631272 1205.19287246 -308.95631272 1205.19287246 -308.75009465 1203.98113489 C-305.11401014 1182.61504702 -301.48163216 1161.24832893 -297.84936523 1139.8815918 C-297.59194294 1138.3673135 -297.59194294 1138.3673135 -297.32932019 1136.82244372 C-295.2023612 1124.31062659 -293.07550675 1111.79879169 -290.94868702 1099.28695089 C-288.95413831 1087.55326859 -286.95949517 1075.81960234 -284.96484375 1064.0859375 C-284.78424026 1063.02352549 -284.60363678 1061.96111348 -284.41756046 1060.86650717 C-283.68610947 1056.5636988 -282.95465834 1052.26089044 -282.22320622 1047.95808226 C-281.12016178 1041.46935813 -280.01712559 1034.98063261 -278.91409582 1028.49190599 C-274.04776052 999.86502233 -269.18105116 971.2382023 -264.31404305 942.61143303 C-249.25793541 854.05434633 -234.20587677 765.49657347 -219.16078568 676.93761444 C-210.8520705 628.03055844 -202.54256908 579.12363663 -194.22827148 530.2175293 C-193.96550808 528.6719002 -193.96550808 528.6719002 -193.69743633 527.09504628 C-190.17927079 506.40047632 -186.66091253 485.70593914 -183.14206481 465.01148516 C-181.21757153 453.69346544 -179.29318369 442.3754278 -177.36889648 431.05737305 C-177.19515912 430.03551116 -177.02142176 429.01364927 -176.84241962 427.96082187 C-171.5986841 397.11868625 -166.35968774 366.27574818 -161.12402964 335.43224037 C-159.73777092 327.2657811 -158.351311 319.09935602 -156.96472168 310.93295288 C-156.76985279 309.78525189 -156.57498389 308.6375509 -156.37420988 307.45507109 C-155.59143735 302.84486238 -154.80866129 298.23465426 -154.02586269 293.62444997 C-151.9587918 281.45060708 -149.89211986 269.27669685 -147.8269043 257.10253906 C-144.11289041 235.21002255 -140.39343588 213.3184566 -136.65912628 191.42939186 C-134.85890132 180.8744049 -133.06704462 170.31805055 -131.28437066 159.76008493 C-130.00493435 152.18529821 -128.7181525 144.61178193 -127.42597175 137.039159 C-126.67489988 132.63596179 -125.92715031 128.23226918 -125.18851471 123.82696724 C-124.50895093 119.77431594 -123.81967885 115.72343151 -123.1232233 111.67365003 C-122.87408026 110.21505613 -122.6283113 108.75588031 -122.38654232 107.29604602 C-120.15396513 93.83723601 -117.1174488 80.03468335 -111.07202148 67.7175293 C-110.56783691 66.67483887 -110.56783691 66.67483887 -110.0534668 65.61108398 C-96.10226436 37.7468319 -70.11957726 16.76959306 -40.86108398 6.6862793 C-27.48621463 2.35549271 -14.05724776 0.16382196 0 0 Z M199.36547852 175.2175293 C193.43260911 182.73267154 190.23925491 191.64487237 187.15844727 200.61206055 C186.78745407 201.6737294 186.41646088 202.73539825 186.03422546 203.82923889 C184.8261784 207.28995622 183.6272023 210.7537458 182.42797852 214.2175293 C181.57932722 216.65221422 180.7298698 219.08661828 179.87963867 221.52075195 C178.582686 225.23386716 177.28612412 228.94711149 175.99194336 232.66119385 C172.08049913 243.88447329 168.1073059 255.08513937 164.11547852 266.2800293 C162.80254345 269.96607235 161.49023084 273.65233688 160.17797852 277.33862305 C159.85383469 278.24898315 159.52969086 279.15934326 159.19572449 280.09729004 C155.48991199 290.50797882 151.8026652 300.92523254 148.11547852 311.3425293 C141.60258843 329.74118327 135.08059786 348.1365967 128.55297852 366.5300293 C128.32222374 367.18025433 128.09146896 367.83047935 127.85372162 368.50040817 C125.73379688 374.47395805 123.61380326 380.44748347 121.49371338 386.42097473 C118.23577554 395.60043155 114.97820566 404.78001886 111.72094727 413.9597168 C111.49455063 414.59775238 111.26815399 415.23578796 111.03489685 415.89315796 C109.43674426 420.39711041 107.8386091 424.90106904 106.24047852 429.4050293 C104.4136679 434.55347116 102.58684787 439.70190969 100.76000977 444.8503418 C100.53371384 445.4880954 100.30741791 446.125849 100.07426453 446.78292847 C96.80838494 455.98688317 93.54207372 465.19068461 90.27552414 474.39440155 C88.15958341 480.35624475 86.04374585 486.31812456 83.92797852 492.2800293 C83.58124588 493.25706818 83.58124588 493.25706818 83.22750854 494.25384521 C77.05918793 511.63545791 70.89583306 529.01882003 64.74047852 546.4050293 C56.00414632 571.08138199 47.24941924 595.75119977 38.49380493 620.42071533 C35.23583733 629.60025888 31.97823632 638.77993245 28.72094727 647.9597168 C28.49455063 648.59775238 28.26815399 649.23578796 28.03489685 649.89315796 C26.43674426 654.39711041 24.8386091 658.90106904 23.24047852 663.4050293 C21.4136679 668.55347116 19.58684787 673.70190969 17.76000977 678.8503418 C17.53371384 679.4880954 17.30741791 680.125849 17.07426453 680.78292847 C13.80838494 689.98688317 10.54207372 699.19068461 7.27552414 708.39440155 C5.15958341 714.35624475 3.04374585 720.31812456 0.92797852 726.2800293 C0.69682343 726.93138855 0.46566833 727.5827478 0.22750854 728.25384521 C-5.94081207 745.63545791 -12.10416694 763.01882003 -18.25952148 780.4050293 C-26.99585368 805.08138199 -35.75058076 829.75119977 -44.50619507 854.42071533 C-47.76416267 863.60025888 -51.02176368 872.77993245 -54.27905273 881.9597168 C-54.50544937 882.59775238 -54.73184601 883.23578796 -54.96510315 883.89315796 C-56.56325574 888.39711041 -58.1613909 892.90106904 -59.75952148 897.4050293 C-61.5863321 902.55347116 -63.41315213 907.70190969 -65.23999023 912.8503418 C-65.46628616 913.4880954 -65.69258209 914.125849 -65.92573547 914.78292847 C-69.19161506 923.98688317 -72.45792628 933.19068461 -75.72447586 942.39440155 C-77.84041659 948.35624475 -79.95625415 954.31812456 -82.07202148 960.2800293 C-82.30317657 960.93138855 -82.53433167 961.5827478 -82.77249146 962.25384521 C-88.94081207 979.63545791 -95.10416694 997.01882003 -101.25952148 1014.4050293 C-109.99585368 1039.08138199 -118.75058076 1063.75119977 -127.50619507 1088.42071533 C-130.76416267 1097.60025888 -134.02176602 1106.77993162 -137.27905273 1115.9597168 C-137.61849191 1116.91633398 -137.61849191 1116.91633398 -137.96478844 1117.89227676 C-139.1063834 1121.1095587 -140.24797166 1124.32684302 -141.38955688 1127.54412842 C-143.45023538 1133.35164851 -145.51097354 1139.15914743 -147.57170677 1144.9666481 C-148.71764741 1148.19610765 -149.86358426 1151.42556854 -151.00952148 1154.6550293 C-151.4678548 1155.94669597 -151.92618813 1157.23836264 -152.38452148 1158.5300293 C-152.72483398 1159.4890918 -152.72483398 1159.4890918 -153.07202148 1160.4675293 C-155.13452255 1166.28003231 -155.13452255 1166.28003231 -155.82202625 1168.21754265 C-156.28034376 1169.50916478 -156.7386612 1170.80078695 -157.19697857 1172.09240913 C-158.34305338 1175.32225733 -159.48912945 1178.55210508 -160.63520813 1181.7819519 C-162.69482599 1187.58631314 -164.75443516 1193.39067746 -166.81399632 1199.19505882 C-167.95598796 1202.41348873 -169.09798712 1205.63191596 -170.23999023 1208.8503418 C-170.46625784 1209.48801609 -170.69252544 1210.12569038 -170.92564964 1210.78268814 C-174.19155794 1219.98672292 -177.45789783 1229.19060445 -180.72447586 1238.39440155 C-182.84041659 1244.35624475 -184.95625415 1250.31812456 -187.07202148 1256.2800293 C-187.30317657 1256.93138855 -187.53433167 1257.5827478 -187.77249146 1258.25384521 C-194.2790709 1276.5886321 -200.77947248 1294.92559611 -207.27212524 1313.26531982 C-213.89855701 1331.98238703 -220.5383879 1350.69469017 -227.17974854 1369.40646362 C-233.33817592 1386.75773454 -239.49062913 1404.11110526 -245.63452148 1421.4675293 C-250.66833159 1435.68786568 -255.71158221 1449.90479077 -260.76785278 1464.11715698 C-261.74843834 1466.87387131 -262.72855736 1469.630751 -263.70849609 1472.38769531 C-264.36222146 1474.2268073 -265.01594868 1476.06591862 -265.66967773 1477.9050293 C-265.99566452 1478.82215195 -266.32165131 1479.7392746 -266.65751648 1480.68418884 C-268.86757244 1486.90042219 -271.08196218 1493.11510018 -273.29794312 1499.32922363 C-274.88271281 1503.77553324 -276.46460044 1508.22286483 -278.04589844 1512.67041016 C-278.8076788 1514.81098873 -279.57068141 1516.95113277 -280.33496094 1519.09082031 C-281.39501642 1522.05902247 -282.45079591 1525.02871305 -283.50561523 1527.9987793 C-283.97939857 1529.32051147 -283.97939857 1529.32051147 -284.4627533 1530.66894531 C-289.72390998 1545.53121614 -289.02798925 1559.32605643 -282.45117188 1573.57421875 C-279.08299442 1580.58837113 -274.97778314 1586.62544069 -269.75952148 1592.4050293 C-269.19491211 1593.03924805 -268.63030273 1593.6734668 -268.04858398 1594.3269043 C-255.43480635 1607.7105369 -237.45259852 1614.12271201 -220.79278564 1620.90792847 C-216.74974614 1622.55474859 -212.71173469 1624.21374545 -208.67330933 1625.87184143 C-206.55386111 1626.74192715 -204.43416868 1627.6114182 -202.3142395 1628.48033142 C-191.15255247 1633.05688789 -180.01738154 1637.69638857 -168.88452148 1642.3425293 C-166.88828835 1643.17510488 -164.89203176 1644.00762422 -162.89575195 1644.84008789 C-158.87853417 1646.51539985 -154.86146217 1648.19106072 -150.84448242 1649.86694336 C-141.58761505 1653.72853707 -132.32873615 1657.58530372 -123.07003784 1661.44250488 C-118.04330518 1663.53666355 -113.01663551 1665.6309734 -107.98999023 1667.7253418 C-107.02837479 1668.12599854 -106.06675934 1668.52665527 -105.07600403 1668.93945312 C-99.11205198 1671.42445174 -93.14853038 1673.91048043 -87.18530273 1676.3972168 C-71.80026136 1682.81234331 -56.40892948 1689.21196103 -41.00952148 1695.5925293 C-26.06523118 1701.78460426 -11.12834306 1707.9942468 3.80297852 1714.2175293 C4.80197174 1714.63389648 5.80096497 1715.05026367 6.83023071 1715.47924805 C14.99145629 1718.88091386 23.15229018 1722.28351896 31.31311035 1725.68615723 C38.43455195 1728.65538253 45.55614504 1731.62424406 52.67797852 1734.5925293 C53.67862335 1735.00959137 54.67926819 1735.42665344 55.7102356 1735.85635376 C69.38103682 1741.55363735 83.05773599 1747.2364884 96.74047852 1752.9050293 C117.54873853 1761.52555787 138.33890796 1770.18930309 159.12768555 1778.85668945 C165.17407124 1781.37749285 171.22087598 1783.89728976 177.26782227 1786.41674805 C178.25641235 1786.8286438 179.24500244 1787.24053955 180.2635498 1787.66491699 C183.25585214 1788.91163846 186.24816351 1790.15833824 189.24047852 1791.4050293 C200.30075777 1796.01308402 211.36101574 1800.6211882 222.4201355 1805.23202515 C242.18663766 1813.47316601 261.95546455 1821.70841516 281.74047852 1829.9050293 C302.53114559 1838.5182694 323.30374905 1847.174661 344.07495117 1855.8347168 C355.39583684 1860.55450361 366.71809674 1865.2709933 378.0401001 1869.98809814 C381.03007799 1871.23382681 384.02004747 1872.47957569 387.01000977 1873.7253418 C387.97165039 1874.12600861 388.93329102 1874.52667542 389.92407227 1874.93948364 C395.88799809 1877.42447399 401.8514949 1879.91049097 407.81469727 1882.3972168 C423.19973864 1888.81234331 438.59107052 1895.21196103 453.99047852 1901.5925293 C467.92954277 1907.36809502 481.8626108 1913.1578607 495.78967285 1918.96231079 C498.79653858 1920.21484669 501.80407875 1921.46575063 504.81176758 1922.71630859 C514.25019463 1926.64289441 523.68154023 1930.58445835 533.09153748 1934.57878113 C537.42880531 1936.41873148 541.76965875 1938.25013476 546.11080933 1940.0809021 C548.16431117 1940.94971521 550.21607605 1941.82264767 552.26589966 1942.70010376 C574.21853103 1952.09483975 594.72689031 1959.00700272 618.24047852 1950.3425293 C627.37424455 1946.36416213 635.24322048 1939.38694187 639.21728516 1930.12962341 C640.26192196 1927.3689835 641.25167174 1924.59401175 642.22485352 1921.80737305 C642.5971257 1920.76264832 642.96939789 1919.71792358 643.35295105 1918.64154053 C644.57322101 1915.21123609 645.78183323 1911.77694496 646.99047852 1908.3425293 C647.84590797 1905.93120395 648.70211904 1903.52015576 649.55908203 1901.109375 C651.30058307 1896.20623087 653.03753361 1891.30151419 654.77026367 1886.39526367 C656.95370984 1880.21320588 659.14675245 1874.03462512 661.34594727 1867.8581543 C661.98853376 1866.05314425 662.63111196 1864.24813126 663.27368164 1862.44311523 C663.58764893 1861.56119507 663.90161621 1860.6792749 664.22509766 1859.77062988 C665.51878725 1856.13467599 666.81014492 1852.49789554 668.10159302 1848.86114502 C673.04827655 1834.93245743 678.01769502 1821.01191677 682.99047852 1807.0925293 C683.61773331 1805.33667511 683.61773331 1805.33667511 684.25765991 1803.54534912 C687.68186845 1793.96032847 691.106906 1784.3756041 694.53198242 1774.79089355 C697.51853246 1766.43324288 700.50476254 1758.07547798 703.49047852 1749.7175293 C703.90906128 1748.5458017 704.32764404 1747.3740741 704.75891113 1746.1668396 C710.26557176 1730.75077351 715.76037981 1715.33055657 721.24047852 1699.9050293 C727.14131541 1683.295197 733.06064021 1666.69203004 738.99047852 1650.0925293 C739.62086029 1648.32779266 739.62086029 1648.32779266 740.26397705 1646.52740479 C744.49347471 1634.68743772 748.72440148 1622.84798221 752.95726013 1611.00921631 C755.01048179 1605.26632628 757.0631448 1599.52323671 759.11547852 1593.7800293 C759.7283522 1592.06502228 759.7283522 1592.06502228 760.35360718 1590.31536865 C767.2661655 1570.96807963 774.1396272 1551.60708795 781.00304413 1532.24233246 C787.92672887 1512.70804681 794.89125188 1493.18884549 801.89749146 1473.68399048 C808.38979213 1455.60672862 814.82516766 1437.50970677 821.24047852 1419.4050293 C828.08108775 1400.10096159 834.94656811 1380.80621526 841.86547852 1361.5300293 C842.25142181 1360.4546994 842.63736511 1359.37936951 843.03500366 1358.27145386 C844.59293716 1353.930802 846.15090965 1349.59016414 847.70896912 1345.2495575 C852.1675379 1332.82599189 856.61261449 1320.3976119 861.05297852 1307.9675293 C861.46387726 1306.81733307 861.874776 1305.66713684 862.29812622 1304.48208618 C869.22807637 1285.07907223 876.11982711 1265.6626339 883.00284195 1246.242939 C889.92663828 1226.70846663 896.89117973 1207.18904636 903.89749146 1187.68399048 C910.38979164 1169.60672999 916.82537454 1151.50977928 923.24047852 1133.4050293 C930.41755894 1113.14982419 937.63252527 1092.90880796 944.8972168 1072.68481445 C951.38960355 1054.60727609 957.82507102 1036.50997948 964.24047852 1018.4050293 C971.08108775 999.10096159 977.94656811 979.80621526 984.86547852 960.5300293 C985.25142181 959.4546994 985.63736511 958.37936951 986.03500366 957.27145386 C987.59293716 952.930802 989.15090965 948.59016414 990.70896912 944.2495575 C995.1675379 931.82599189 999.61261449 919.3976119 1004.05297852 906.9675293 C1004.66932663 905.24223495 1004.66932663 905.24223495 1005.29812622 903.48208618 C1012.22807637 884.07907223 1019.11982711 864.6626339 1026.00284195 845.242939 C1032.92663828 825.70846663 1039.89117973 806.18904636 1046.89749146 786.68399048 C1053.38979164 768.60672999 1059.82537454 750.50977928 1066.24047852 732.4050293 C1073.03661946 713.22491418 1079.86147385 694.05563069 1086.74047852 674.9050293 C1093.88875444 655.00392392 1100.9847322 635.0846655 1108.05297852 615.1550293 C1108.28904816 614.48946014 1108.5251178 613.82389099 1108.76834106 613.13815308 C1109.46484231 611.17439857 1110.16125608 609.21061306 1110.85766602 607.24682617 C1111.08142568 606.61602551 1111.30518534 605.98522486 1111.53572559 605.33530903 C1112.61805728 602.28336364 1113.69832293 599.23070996 1114.77580261 596.17704773 C1116.55000297 591.15087061 1118.33226497 586.12989629 1120.18701172 581.1328125 C1120.6138752 579.96924225 1120.6138752 579.96924225 1121.04936218 578.78216553 C1121.76878182 576.82680208 1122.49936443 574.87555475 1123.23120117 572.92480469 C1127.2635123 558.86243663 1123.45489166 544.50342929 1116.70727539 531.98876953 C1112.81825307 525.23428912 1107.79904382 519.81623941 1102.24047852 514.4050293 C1101.56114258 513.72827148 1100.88180664 513.05151367 1100.18188477 512.35424805 C1088.86715423 501.74521796 1073.87540514 496.73975472 1059.74047852 491.0925293 C1057.55233684 490.21021377 1055.36459898 489.32689617 1053.17724609 488.44262695 C1048.70192949 486.63421493 1044.22499667 484.8298971 1039.74682617 483.02856445 C1031.0237649 479.51599257 1022.32192596 475.95197423 1013.62133789 472.38418579 C1009.10340921 470.53203775 1004.58394344 468.68364721 1000.06469727 466.8347168 C998.26309441 466.09743117 996.46149936 465.3601265 994.65991211 464.62280273 C986.4387895 461.2583768 978.21712747 457.89526943 969.99551392 454.53204346 C965.41048077 452.65642426 960.82548132 450.78072267 956.24047852 448.9050293 C954.40714534 448.1550289 952.57381201 447.4050289 950.74047852 446.6550293 C851.74047888 406.15502944 851.74047888 406.15502944 848.99055481 405.03005981 C847.15696781 404.2799565 845.32338016 403.52985478 843.48979187 402.77975464 C838.9103343 400.90634826 834.33088794 399.03291447 829.75146484 397.15942383 C821.45522138 393.76537399 813.158893 390.37153244 804.8621521 386.97869873 C785.68648767 379.1370659 766.51333607 371.28942709 747.34783936 363.42297363 C728.84522841 355.82894539 710.33335568 348.25760099 691.82104492 340.68725586 C683.54217855 337.30165494 675.26382898 333.91479075 666.98544312 330.52801514 C662.40380968 328.65363414 657.82214237 326.77933593 653.24047852 324.9050293 C651.40714502 324.15502969 649.57381169 323.40502969 647.74047852 322.6550293 C646.83297852 322.2837793 645.92547852 321.9125293 644.99047852 321.5300293 C416.7404786 228.15502933 416.7404786 228.15502933 413.99055481 227.03005981 C412.15696781 226.2799565 410.32338016 225.52985478 408.48979187 224.77975464 C403.9103343 222.90634826 399.33088794 221.03291447 394.75146484 219.15942383 C386.45528257 215.76539903 378.15901637 212.37158011 369.86233521 208.97877502 C365.21749487 207.07932702 360.5727266 205.17970285 355.92797852 203.2800293 C355.01640991 202.90721832 354.10484131 202.53440735 353.16564941 202.15029907 C342.57822379 197.82000863 331.9927159 193.48510828 321.41157532 189.13948059 C317.33054903 187.46343162 313.2491396 185.78833633 309.16650391 184.11621094 C307.58959674 183.47030323 306.01269241 182.82438859 304.43579102 182.1784668 C303.66736374 181.86374924 302.89893646 181.54903168 302.10722351 181.22477722 C297.56458592 179.36272332 293.02700046 177.48893969 288.49287415 175.60626221 C242.39514005 155.76277241 242.39514005 155.76277241 199.36547852 175.2175293 Z " fill="#242424" transform="translate(613.759521484375,11.594970703125)"/>
<path d="M0 0 C0.80947083 -0.00100708 1.61894165 -0.00201416 2.45294189 -0.00305176 C25.78130325 0.01641383 48.76569961 2.56828483 71.625 7.25 C72.82552002 7.49242432 72.82552002 7.49242432 74.05029297 7.73974609 C97.58950332 12.65087468 121.11076643 21.61012097 142.625 32.25 C143.47175293 32.66717285 144.31850586 33.0843457 145.19091797 33.51416016 C170.34902435 46.03060792 193.68312553 61.49836623 214.625 80.25 C215.36419678 80.90307129 216.10339355 81.55614258 216.86499023 82.22900391 C223.34670463 87.99265919 229.5529187 93.99469367 235.6875 100.125 C236.61626953 101.04152344 237.54503906 101.95804688 238.50195312 102.90234375 C244.64981409 109.03726185 250.25955156 115.42313277 255.625 122.25 C256.49499634 123.34707275 256.49499634 123.34707275 257.38256836 124.46630859 C264.95059118 134.07835029 272.07629709 143.91611332 278.625 154.25 C278.99012695 154.82331055 279.35525391 155.39662109 279.73144531 155.98730469 C309.39167616 202.93825307 325.78814852 255.25725734 331.625 310.25 C331.71998779 311.04035645 331.81497559 311.83071289 331.9128418 312.64501953 C341.31877015 398.93529458 313.08081059 490.52080977 259.625 558.25 C255.75005993 563.02786115 251.72565034 567.66555803 247.625 572.25 C246.97337891 572.98774658 246.32175781 573.72549316 245.65039062 574.4855957 C239.88529224 580.96877367 233.88175387 587.17647015 227.75 593.3125 C226.83347656 594.24126953 225.91695312 595.17003906 224.97265625 596.12695312 C218.83748028 602.2750725 212.44869954 607.88035037 205.625 613.25 C204.54387939 614.11202026 204.54387939 614.11202026 203.44091797 614.99145508 C160.6562346 648.91070333 109.05997272 672.48843418 55.0625 681.3125 C54.13115234 681.47298828 53.19980469 681.63347656 52.24023438 681.79882812 C35.80704455 684.52492024 19.45933876 685.69489498 2.8125 685.6875 C1.8687854 685.68790283 0.9250708 685.68830566 -0.04724121 685.6887207 C-47.21588458 685.57421933 -93.9400869 675.02106433 -136.375 654.25 C-137.33196777 653.7864209 -138.28893555 653.3228418 -139.27490234 652.84521484 C-164.17034137 640.68252718 -188.64007971 625.48170721 -208.96875 606.48046875 C-210.92638277 604.66584487 -212.9152203 602.92724905 -214.94140625 601.19140625 C-219.93413056 596.83542001 -224.62806484 592.18300192 -229.31079102 587.49951172 C-230.80141615 586.01106763 -232.29987017 584.53082723 -233.79882812 583.05078125 C-240.10642985 576.78057187 -245.88038277 570.25766667 -251.375 563.25 C-251.95419189 562.51942383 -252.53338379 561.78884766 -253.13012695 561.03613281 C-260.70133895 551.42313 -267.8155308 541.57947341 -274.375 531.25 C-275.07625 530.15429688 -275.7775 529.05859375 -276.5 527.9296875 C-299.84181297 490.66364754 -315.59951096 448.47927649 -323.375 405.25 C-323.54306152 404.37190674 -323.71112305 403.49381348 -323.88427734 402.58911133 C-330.13595871 369.5881893 -330.45632392 334.55285777 -326.375 301.25 C-326.26784668 300.35909668 -326.16069336 299.46819336 -326.05029297 298.55029297 C-316.14152986 218.48691014 -279.21453032 148.43328184 -222.8125 91.5 C-221.51892578 90.18672729 -221.51892578 90.18672729 -220.19921875 88.84692383 C-214.23969517 82.88006372 -207.99169551 77.47407032 -201.375 72.25 C-200.66931885 71.68506836 -199.9636377 71.12013672 -199.23657227 70.53808594 C-164.36880625 42.77648667 -123.81228103 21.79320714 -80.55419922 10.81494141 C-78.31909527 10.23550711 -76.09996528 9.61144601 -73.87890625 8.98046875 C-58.95606971 4.85697168 -43.73015992 2.98364709 -28.375 1.25 C-27.47201172 1.14397461 -26.56902344 1.03794922 -25.63867188 0.92871094 C-17.11282848 0.02836639 -8.56388867 0.00743602 0 0 Z " fill="#252525" transform="translate(1038.375,673.75)"/>
<path d="M0 0 C1.9550963 -0.03092256 3.90947805 -0.10003168 5.86352539 -0.17114258 C16.00417334 -0.37413573 25.75929549 1.21686459 35.7019043 3.03344727 C37.20801624 3.30437456 38.71418952 3.57496104 40.22041988 3.84522915 C55.76126087 6.64420545 71.27799777 9.57344202 86.79082608 12.52304006 C90.89499121 13.30288681 94.99964432 14.08015791 99.10423279 14.85777283 C106.1595131 16.19473654 113.21450405 17.53321771 120.26928711 18.87280273 C130.57490526 20.8296539 140.88100349 22.78396745 151.18721223 24.73770547 C167.69109008 27.86637269 184.19465068 30.99670964 200.69799805 34.12817383 C221.28330182 38.03414284 241.86916978 41.93712986 262.45532227 45.83862305 C264.02383498 46.13589288 265.59234758 46.43316333 267.16086006 46.73043442 C273.38212063 47.9095115 279.60338249 49.08858179 285.82465076 50.26761818 C295.94835026 52.18624502 306.07198795 54.10519772 316.19558632 56.02435803 C364.04272577 65.09486565 411.89125521 74.15802131 459.74047852 83.2175293 C461.05776947 83.46693834 461.05776947 83.46693834 462.40167236 83.72138596 C479.31520712 86.92370275 496.22876152 90.1259158 513.14233398 93.32803345 C535.30719684 97.52434084 557.47201226 101.72089865 579.63675857 105.91782165 C584.91816415 106.91785883 590.19957699 107.91785767 595.48099589 108.91782451 C599.88292262 109.75127235 604.28484604 110.58473763 608.68676758 111.41821289 C609.5577636 111.58313028 610.42875962 111.74804767 611.32614946 111.91796255 C623.53037226 114.22878639 635.73442842 116.54048857 647.93837976 118.85274553 C655.76299855 120.33522378 663.58766874 121.81743064 671.41235352 123.29956055 C672.70564213 123.5445397 672.70564213 123.5445397 674.02505779 123.79446793 C700.25520514 128.76295089 726.48803925 133.71706117 752.72250843 138.66267073 C759.64955506 139.96862244 766.57642521 141.27550691 773.50317383 142.58303833 C774.95406355 142.85691559 774.95406355 142.85691559 776.43426418 143.13632572 C781.27220262 144.04959812 786.11011676 144.96299917 790.94801331 145.87649345 C801.24443648 147.82047412 811.54144144 149.76131681 821.83923173 151.69804257 C828.829108 153.01290606 835.81829197 154.33140773 842.80696273 155.65266353 C846.82561477 156.4122876 850.84455021 157.1703117 854.86435699 157.92380333 C901.82381562 166.72926721 901.82381562 166.72926721 914.67797852 172.2175293 C915.90278931 172.72509766 915.90278931 172.72509766 917.15234375 173.24291992 C933.01939855 179.98544453 946.74271057 189.56300843 959.24047852 201.4050293 C960.58625977 202.65413086 960.58625977 202.65413086 961.95922852 203.9284668 C976.58549959 217.93846241 986.70726804 235.07994405 993.17797852 254.2175293 C993.4605249 255.05227783 993.74307129 255.88702637 994.03417969 256.74707031 C1003.13920145 285.22364711 997.53021389 314.97637781 992.27246094 343.57910156 C991.63573468 347.07265263 991.02126009 350.56996168 990.40757847 354.06762314 C989.1429538 361.27483778 987.86511291 368.479786 986.54736328 375.67749023 C986.31864029 376.9326947 986.0899173 378.18789917 985.85426331 379.48114014 C985.24047852 382.4050293 985.24047852 382.4050293 984.24047852 384.4050293 C979.26887177 383.80019802 974.98020419 382.24328323 970.40844727 380.29174805 C969.64101196 379.97056 968.87357666 379.64937195 968.08288574 379.31845093 C966.41107806 378.61810973 964.74045654 377.91493181 963.07089233 377.20925903 C958.46638507 375.26368285 953.85266943 373.34011411 949.24047852 371.4128418 C948.26640549 371.00512039 947.29233246 370.59739899 946.28874207 370.17732239 C935.19640208 365.53898093 924.06316406 361.00180489 912.92797852 356.4675293 C910.84917022 355.62035908 908.77039429 354.77310947 906.69165039 353.92578125 C903.58026199 352.65756816 900.46884825 351.38941767 897.3572998 350.12159729 C886.87684421 345.85088334 876.40196602 341.56657675 865.92797852 337.2800293 C864.11442344 336.53791618 862.3008655 335.79581005 860.48730469 335.05371094 C856.87814073 333.57682241 853.26901572 332.09983874 849.65991211 330.62280273 C841.4387895 327.2583768 833.21712747 323.89526943 824.99551392 320.53204346 C820.41048077 318.65642426 815.82548132 316.78072267 811.24047852 314.9050293 C809.40714534 314.1550289 807.57381201 313.4050289 805.74047852 312.6550293 C618.74047894 236.15502947 618.74047894 236.15502947 615.99055481 235.03005981 C614.15696781 234.2799565 612.32338016 233.52985478 610.48979187 232.77975464 C605.9103343 230.90634826 601.33088794 229.03291447 596.75146484 227.15942383 C588.45522138 223.76537399 580.158893 220.37153244 571.8621521 216.97869873 C552.68648767 209.1370659 533.51333607 201.28942709 514.34783936 193.42297363 C495.84522841 185.82894539 477.33335568 178.25760099 458.82104492 170.68725586 C450.54217855 167.30165494 442.26382898 163.91479075 433.98544312 160.52801514 C429.40380968 158.65363414 424.82214237 156.77933593 420.24047852 154.9050293 C418.40714502 154.15502969 416.57381169 153.40502969 414.74047852 152.6550293 C413.83297852 152.2837793 412.92547852 151.9125293 411.99047852 151.5300293 C409.24047852 150.4050293 406.49047852 149.2800293 403.74047852 148.1550293 C402.37928139 147.59817696 402.37928139 147.59817696 400.99058533 147.03007507 C399.15689401 146.27992724 397.32320464 145.52977465 395.48951721 144.77961731 C390.91167694 142.90684023 386.33380311 141.03414526 381.75585938 139.16162109 C371.56386485 134.99265581 361.37276886 130.82150674 351.18264771 126.64796448 C343.8568046 123.64797764 336.52888859 120.65308293 329.20016479 117.66014099 C323.92388894 115.50454474 318.65091021 113.3411226 313.38047791 111.17127991 C310.03977638 109.79723956 306.69687431 108.42861237 303.35348511 107.06112671 C301.81469185 106.43037469 300.27681921 105.7973705 298.74002075 105.16177368 C263.76636689 90.70254532 225.99033137 84.94042341 189.98266602 99.7800293 C188.73299843 100.31643405 187.48555752 100.85805817 186.24047852 101.4050293 C185.62978516 101.67186523 185.0190918 101.93870117 184.38989258 102.21362305 C156.43539485 114.69091088 137.00056739 137.9196166 126.20654297 166.10482788 C123.44531274 173.60514204 120.84811612 181.16280811 118.24047852 188.7175293 C116.97320267 192.35949023 115.70308093 196.00045139 114.43295288 199.64141846 C113.58130133 202.08360159 112.73057151 204.52610636 111.88076782 206.96893311 C108.18364388 217.59362691 104.41320887 228.19096362 100.61547852 238.7800293 C99.39471843 242.18863026 98.17484601 245.59754832 96.95532227 249.0065918 C96.65249832 249.85299728 96.34967438 250.69940277 96.03767395 251.57145691 C92.39554025 261.75809573 88.78665041 271.95649902 85.17797852 282.1550293 C83.74963213 286.19150145 82.32126701 290.22796695 80.89282227 294.2644043 C80.52471436 295.30460724 80.15660645 296.34481018 79.77734375 297.41653442 C75.17644118 310.41511623 70.56316737 323.40930916 65.95079422 336.40382385 C59.20753209 355.40192964 52.46816742 374.4014016 45.74047852 393.4050293 C37.00423758 418.08141423 28.24941921 442.75119986 19.49380493 467.42071533 C16.23583733 476.60025888 12.97823632 485.77993245 9.72094727 494.9597168 C9.49455063 495.59775238 9.26815399 496.23578796 9.03489685 496.89315796 C7.43674426 501.39711041 5.8386091 505.90106904 4.24047852 510.4050293 C2.4136679 515.55347116 0.58684787 520.70190969 -1.23999023 525.8503418 C-1.46628616 526.4880954 -1.69258209 527.125849 -1.92573547 527.78292847 C-5.19161506 536.98688317 -8.45792628 546.19068461 -11.72447586 555.39440155 C-13.84041659 561.35624475 -15.95625415 567.31812456 -18.07202148 573.2800293 C-18.30317657 573.93138855 -18.53433167 574.5827478 -18.77249146 575.25384521 C-24.94081207 592.63545791 -31.10416694 610.01882003 -37.25952148 627.4050293 C-45.99585368 652.08138199 -54.75058076 676.75119977 -63.50619507 701.42071533 C-66.76416267 710.60025888 -70.02176368 719.77993245 -73.27905273 728.9597168 C-73.61864769 729.91677017 -73.61864769 729.91677017 -73.96510315 730.89315796 C-75.56325574 735.39711041 -77.1613909 739.90106904 -78.75952148 744.4050293 C-80.5863321 749.55347116 -82.41315213 754.70190969 -84.23999023 759.8503418 C-84.46628616 760.4880954 -84.69258209 761.125849 -84.92573547 761.78292847 C-88.19161506 770.98688317 -91.45792628 780.19068461 -94.72447586 789.39440155 C-96.84041659 795.35624475 -98.95625415 801.31812456 -101.07202148 807.2800293 C-101.30317657 807.93138855 -101.53433167 808.5827478 -101.77249146 809.25384521 C-107.94081207 826.63545791 -114.10416694 844.01882003 -120.25952148 861.4050293 C-128.99585368 886.08138199 -137.75058076 910.75119977 -146.50619507 935.42071533 C-149.76416267 944.60025888 -153.02176368 953.77993245 -156.27905273 962.9597168 C-156.50544937 963.59775238 -156.73184601 964.23578796 -156.96510315 964.89315796 C-158.56325574 969.39711041 -160.1613909 973.90106904 -161.75952148 978.4050293 C-163.5863321 983.55347116 -165.41315213 988.70190969 -167.23999023 993.8503418 C-167.46628616 994.4880954 -167.69258209 995.125849 -167.92573547 995.78292847 C-171.19161506 1004.98688317 -174.45792628 1014.19068461 -177.72447586 1023.39440155 C-179.84041659 1029.35624475 -181.95625415 1035.31812456 -184.07202148 1041.2800293 C-184.30317657 1041.93138855 -184.53433167 1042.5827478 -184.77249146 1043.25384521 C-190.94081207 1060.63545791 -197.10416694 1078.01882003 -203.25952148 1095.4050293 C-211.99585368 1120.08138199 -220.75058076 1144.75119977 -229.50619507 1169.42071533 C-232.76416267 1178.60025888 -236.02176368 1187.77993245 -239.27905273 1196.9597168 C-239.61864769 1197.91677017 -239.61864769 1197.91677017 -239.96510315 1198.89315796 C-241.56325574 1203.39711041 -243.1613909 1207.90106904 -244.75952148 1212.4050293 C-246.5863321 1217.55347116 -248.41315213 1222.70190969 -250.23999023 1227.8503418 C-250.46628616 1228.4880954 -250.69258209 1229.125849 -250.92573547 1229.78292847 C-254.19161506 1238.98688317 -257.45792628 1248.19068461 -260.72447586 1257.39440155 C-262.84041659 1263.35624475 -264.95625415 1269.31812456 -267.07202148 1275.2800293 C-267.30317657 1275.93138855 -267.53433167 1276.5827478 -267.77249146 1277.25384521 C-273.94081207 1294.63545791 -280.10416694 1312.01882003 -286.25952148 1329.4050293 C-293.57535341 1350.06908427 -300.90304707 1370.72892169 -308.23583984 1391.38696289 C-309.17343053 1394.02839839 -310.11100956 1396.66983803 -311.04858398 1399.3112793 C-311.39880332 1400.29793516 -311.39880332 1400.29793516 -311.75609779 1401.30452347 C-314.88588645 1410.12217825 -318.01316033 1418.94072026 -321.13790894 1427.76016235 C-322.82354581 1432.51777709 -324.51004275 1437.27508686 -326.19657326 1442.03238487 C-327.60430935 1446.00372119 -329.01057597 1449.97557427 -330.41584969 1453.94778252 C-334.50180121 1465.49485555 -338.59382756 1477.03777105 -342.85327148 1488.5222168 C-354.08953911 1518.83165915 -363.73151204 1550.4499087 -352.24780273 1582.4519043 C-351.75952148 1584.4050293 -351.75952148 1584.4050293 -352.75952148 1587.4050293 C-366.2495314 1553.00332116 -363.43679841 1521.63393975 -357.11852717 1486.02455378 C-356.29166005 1481.33134416 -355.49443912 1476.63308437 -354.6934967 1471.93539429 C-353.31706019 1463.88521797 -351.92308745 1455.8382509 -350.51641846 1447.79330444 C-348.47097996 1436.09413879 -346.45466562 1424.39009044 -344.44563627 1412.68462384 C-341.47252275 1395.36360943 -338.48521661 1378.04509626 -335.48480844 1360.72879016 C-331.70555741 1338.91645472 -327.96415212 1317.09800627 -324.26342773 1295.2722168 C-324.01375904 1293.80011716 -323.76408838 1292.32801785 -323.51441574 1290.85591888 C-322.53189061 1285.06220768 -321.54973302 1279.26843428 -320.56821632 1273.47455215 C-318.0874345 1258.83147336 -315.59504335 1244.19037578 -313.10206223 1229.54936981 C-311.78708794 1221.82652583 -310.47274934 1214.10357364 -309.15844727 1206.38061523 C-308.95631272 1205.19287246 -308.95631272 1205.19287246 -308.75009465 1203.98113489 C-305.11401014 1182.61504702 -301.48163216 1161.24832893 -297.84936523 1139.8815918 C-297.59194294 1138.3673135 -297.59194294 1138.3673135 -297.32932019 1136.82244372 C-295.2023612 1124.31062659 -293.07550675 1111.79879169 -290.94868702 1099.28695089 C-288.95413831 1087.55326859 -286.95949517 1075.81960234 -284.96484375 1064.0859375 C-284.78424026 1063.02352549 -284.60363678 1061.96111348 -284.41756046 1060.86650717 C-283.68610947 1056.5636988 -282.95465834 1052.26089044 -282.22320622 1047.95808226 C-281.12016178 1041.46935813 -280.01712559 1034.98063261 -278.91409582 1028.49190599 C-274.04776052 999.86502233 -269.18105116 971.2382023 -264.31404305 942.61143303 C-249.25793541 854.05434633 -234.20587677 765.49657347 -219.16078568 676.93761444 C-210.8520705 628.03055844 -202.54256908 579.12363663 -194.22827148 530.2175293 C-193.96550808 528.6719002 -193.96550808 528.6719002 -193.69743633 527.09504628 C-190.17927079 506.40047632 -186.66091253 485.70593914 -183.14206481 465.01148516 C-181.21757153 453.69346544 -179.29318369 442.3754278 -177.36889648 431.05737305 C-177.19515912 430.03551116 -177.02142176 429.01364927 -176.84241962 427.96082187 C-171.5986841 397.11868625 -166.35968774 366.27574818 -161.12402964 335.43224037 C-159.73777092 327.2657811 -158.351311 319.09935602 -156.96472168 310.93295288 C-156.76985279 309.78525189 -156.57498389 308.6375509 -156.37420988 307.45507109 C-155.59143735 302.84486238 -154.80866129 298.23465426 -154.02586269 293.62444997 C-151.9587918 281.45060708 -149.89211986 269.27669685 -147.8269043 257.10253906 C-144.11289041 235.21002255 -140.39343588 213.3184566 -136.65912628 191.42939186 C-134.85890132 180.8744049 -133.06704462 170.31805055 -131.28437066 159.76008493 C-130.00493435 152.18529821 -128.7181525 144.61178193 -127.42597175 137.039159 C-126.67489988 132.63596179 -125.92715031 128.23226918 -125.18851471 123.82696724 C-124.50895093 119.77431594 -123.81967885 115.72343151 -123.1232233 111.67365003 C-122.87408026 110.21505613 -122.6283113 108.75588031 -122.38654232 107.29604602 C-120.15396513 93.83723601 -117.1174488 80.03468335 -111.07202148 67.7175293 C-110.56783691 66.67483887 -110.56783691 66.67483887 -110.0534668 65.61108398 C-96.10226436 37.7468319 -70.11957726 16.76959306 -40.86108398 6.6862793 C-27.48621463 2.35549271 -14.05724776 0.16382196 0 0 Z " fill="#B81C1C" transform="translate(613.759521484375,11.594970703125)"/>
<path d="M0 0 C4.40668643 0.5879974 8.1035588 1.69726693 12.1953125 3.421875 C12.79917282 3.67374069 13.40303314 3.92560638 14.02519226 4.18510437 C15.35372775 4.73972558 16.6811108 5.29711343 18.00747681 5.85690308 C21.77627876 7.4464514 25.55470623 9.01287036 29.33203125 10.58203125 C30.16226303 10.92746475 30.99249481 11.27289825 31.84788513 11.62879944 C43.13500408 16.31628448 54.47654547 20.8697563 65.8125 25.4375 C68.07384588 26.34936222 70.33515774 27.26130883 72.59643555 28.17333984 C75.93582946 29.52019973 79.27523494 30.86703067 82.61476135 32.21356201 C89.16448105 34.85480938 95.71252655 37.50012791 102.2578125 40.15234375 C103.03980515 40.46916107 103.82179779 40.78597839 104.62748718 41.11239624 C108.35531624 42.62335922 112.08202786 44.13699761 115.80688477 45.65527344 C122.78748329 48.4982183 129.77659281 51.31440921 136.79335022 54.06713867 C140.27575318 55.43482871 143.75364662 56.81377777 147.23123169 58.19366455 C148.89671265 58.8508167 150.5643998 59.50240752 152.23434448 60.14813232 C154.53172932 61.03680579 156.82098174 61.94394071 159.109375 62.85546875 C159.79590652 63.11524002 160.48243805 63.37501129 161.18977356 63.64265442 C165.76260647 65.49450923 165.76260647 65.49450923 166.95703125 68.0378418 C167.01675753 70.76522893 166.44998546 73.30616813 166 76 C164.25552745 107.99463778 172.01206427 137.47154624 193 162 C199.03006902 168.69694581 205.38624059 174.19011008 213 179 C213.90234375 179.58523438 214.8046875 180.17046875 215.734375 180.7734375 C238.2835079 194.72952245 265.41372508 198.6842733 291.265625 193.0390625 C318.22274604 185.53844095 339.76189378 169.26741603 355 146 C355.69885599 144.68325305 356.38465118 143.35778056 357 142 C362.17923365 142.62370936 366.52275843 144.23970386 371.296875 146.21875 C372.10600845 146.54827667 372.91514191 146.87780334 373.74879456 147.21731567 C376.41820879 148.30589756 379.0840356 149.40299973 381.75 150.5 C383.63279093 151.26936802 385.51585227 152.03807458 387.39916992 152.80615234 C391.31647937 154.40434759 395.23260524 156.00539445 399.14794922 157.60839844 C407.32174817 160.95223296 415.51010688 164.25996437 423.69827271 167.56842041 C428.07040838 169.33548532 432.44144641 171.10526047 436.8125 172.875 C437.66667007 173.22080109 438.52084015 173.56660217 439.40089417 173.92288208 C449.70307587 178.0938828 460.0036125 182.26894261 470.30322266 186.44628906 C471.79850083 187.05273876 473.29378078 187.65918407 474.7890625 188.265625 C475.52927643 188.56583557 476.26949036 188.86604614 477.03213501 189.175354 C481.95830599 191.1729534 486.88535185 193.16838262 491.81288147 195.16262817 C495.27087373 196.56218022 498.72862957 197.96231581 502.18637085 199.36248779 C503.84284903 200.03306667 505.49944338 200.70335864 507.15615845 201.37335205 C509.44164068 202.29765257 511.72672233 203.22293677 514.01171875 204.1484375 C515.03384964 204.5613504 515.03384964 204.5613504 516.07662964 204.98260498 C520.77226139 206.88613069 520.77226139 206.88613069 523 208 C522.49699767 214.07626813 519.84924709 218.90851161 517.125 224.25 C516.38624634 225.70829224 516.38624634 225.70829224 515.63256836 227.19604492 C503.97763773 249.88117075 489.42645716 270.725467 472.2265625 289.55078125 C470.78592241 291.13548535 469.3626593 292.73623839 467.9609375 294.35546875 C457.26400382 306.6349076 445.02598735 317.27427711 432 327 C431.45585449 327.41169434 430.91170898 327.82338867 430.35107422 328.24755859 C405.47595749 346.99111865 377.52703837 360.35064106 348 370 C346.68733154 370.43650879 346.68733154 370.43650879 345.34814453 370.88183594 C281.64283521 391.74424967 208.68431857 384.47241231 149 355 C148.14212891 354.57992676 147.28425781 354.15985352 146.40039062 353.72705078 C133.60386776 347.40613097 121.62336992 340.2776522 110 332 C108.95005859 331.25532471 108.95005859 331.25532471 107.87890625 330.49560547 C99.35365175 324.40131856 91.42739386 317.90998547 83.8359375 310.6875 C81.47883073 308.45376797 79.08839294 306.30167631 76.625 304.1875 C70.20306699 298.61374682 64.47271863 292.49885337 59 286 C58.54882812 285.46793945 58.09765625 284.93587891 57.6328125 284.38769531 C31.98055189 254.00039955 13.60427272 219.65637009 1 182 C0.5045757 180.57268412 0.0085591 179.14557357 -0.48828125 177.71875 C-19.20971943 121.61239655 -18.00217975 55.94250387 0 0 Z " fill="#FEFEFE" transform="translate(773,927)"/>
<path d="M0 0 C2.63298686 0.42109481 5.2715803 0.79417156 7.91113281 1.171875 C21.38243822 3.1787915 34.2879593 6.1836892 47.24707031 10.359375 C48.49931396 10.75962891 48.49931396 10.75962891 49.77685547 11.16796875 C76.38710574 19.78550477 101.43388284 32.18500033 124.24707031 48.359375 C124.94993164 48.85727539 125.65279297 49.35517578 126.37695312 49.86816406 C134.89883353 55.96089179 142.8223597 62.45194237 150.41113281 69.671875 C152.76823958 71.90560703 155.15867738 74.05769869 157.62207031 76.171875 C164.04400332 81.74562818 169.77435168 87.86052163 175.24707031 94.359375 C175.92382812 95.15746582 175.92382812 95.15746582 176.61425781 95.97167969 C202.55777398 126.70399256 221.90803088 162.08123399 234.24707031 200.359375 C234.50423828 201.15569336 234.76140625 201.95201172 235.02636719 202.77246094 C239.30780085 216.34614745 241.84974991 230.35063006 244.24707031 244.359375 C244.4991626 245.78467529 244.4991626 245.78467529 244.75634766 247.23876953 C247.10328871 260.93371781 247.50802832 274.50011204 247.49707031 288.359375 C247.49647614 289.18368011 247.49588196 290.00798523 247.49526978 290.85726929 C247.45071644 307.0297266 246.61888706 322.81202602 243.93457031 338.796875 C243.76941422 339.7992923 243.76941422 339.7992923 243.60092163 340.82196045 C239.30209255 366.89170193 239.30209255 366.89170193 235.24707031 376.359375 C230.00680309 375.73483085 225.6048362 374.07125323 220.77441406 372.0703125 C219.95183609 371.73540802 219.12925812 371.40050354 218.28175354 371.05545044 C215.58033223 369.9541077 212.88250933 368.84421762 210.18457031 367.734375 C208.28508708 366.95835661 206.38534378 366.1829745 204.48535156 365.40820312 C200.60251782 363.82411016 196.72093201 362.23701792 192.84033203 360.64746094 C185.5601972 357.66691006 178.26905108 354.71371547 170.9770813 351.76226807 C167.96654205 350.54335254 164.95671754 349.32267749 161.94688416 348.10202026 C151.93726817 344.04266219 141.9249957 339.98987509 131.91235352 335.93798828 C126.65267553 333.80944955 121.39317468 331.68047316 116.13366699 329.55151367 C111.69633331 327.75538597 107.25890223 325.9594996 102.82128906 324.1640625 C98.45347765 322.39681394 94.08599731 320.62874952 89.71875 318.86010742 C88.08149838 318.19721782 86.44413007 317.53461636 84.80664062 316.87231445 C82.5573122 315.96250245 80.30839152 315.05168986 78.05957031 314.140625 C77.39401123 313.87169434 76.72845215 313.60276367 76.04272461 313.32568359 C73.74351562 312.39329955 71.46720665 311.46944317 69.24707031 310.359375 C69.27849121 309.00126709 69.27849121 309.00126709 69.31054688 307.61572266 C70.02070855 283.17797862 70.02070855 283.17797862 65.24707031 259.359375 C64.88484375 258.22628906 64.52261719 257.09320312 64.14941406 255.92578125 C54.03122805 227.35476786 34.51463775 206.59811749 7.40771484 193.35791016 C-14.42472195 183.26811733 -40.43716543 182.43867335 -63.34667969 189.4609375 C-66.55021292 190.64319381 -69.64637027 191.94291268 -72.75292969 193.359375 C-73.76871094 193.813125 -74.78449219 194.266875 -75.83105469 194.734375 C-94.62911118 203.60320165 -109.31670043 218.24076933 -120.75292969 235.359375 C-125.51873826 234.64944848 -129.70277829 232.89117087 -134.12792969 231.0703125 C-134.9521492 230.73531738 -135.77636871 230.40032227 -136.62556458 230.05517578 C-139.33636904 228.9523236 -142.04461846 227.84333414 -144.75292969 226.734375 C-146.65338388 225.96000591 -148.55402108 225.18608582 -150.45483398 224.41259766 C-154.34458733 222.82919307 -158.23343971 221.24360629 -162.12158203 219.65625 C-169.51169118 216.64027676 -176.90981414 213.64416373 -184.30819702 210.64855957 C-188.10537962 209.11069163 -191.90179203 207.57092498 -195.69824219 206.03125 C-197.20898339 205.41861736 -198.71972557 204.80598714 -200.23046875 204.19335938 C-202.49149733 203.27645243 -204.75252357 202.35953969 -207.0135498 201.44262695 C-211.56191705 199.59814363 -216.11034298 197.75380512 -220.65881348 195.90957642 C-222.92430436 194.99091386 -225.1896958 194.07200639 -227.45507812 193.15307617 C-235.07682945 190.06197708 -242.70042511 186.97552517 -250.32737732 183.89727783 C-254.21046144 182.33001995 -258.09309575 180.7616492 -261.97573853 179.19329834 C-263.8566587 178.43394436 -265.73782025 177.675188 -267.61923218 176.91705322 C-270.23860849 175.86152606 -272.85717307 174.80400818 -275.47558594 173.74609375 C-276.25610321 173.43221207 -277.03662048 173.11833038 -277.84078979 172.79493713 C-281.21199558 171.43088919 -284.53761134 170.0689523 -287.75292969 168.359375 C-279.17166885 139.7090364 -257.71265612 112.46326466 -237.87402344 90.69921875 C-235.94506634 88.57132685 -234.06256616 86.41216641 -232.19042969 84.234375 C-226.21623268 77.39295585 -219.69897703 71.20061796 -212.75292969 65.359375 C-212.2329541 64.9149707 -211.71297852 64.47056641 -211.17724609 64.01269531 C-195.39945211 50.57447368 -178.18762829 38.85554454 -159.75292969 29.359375 C-158.92132324 28.93060059 -158.0897168 28.50182617 -157.23291016 28.06005859 C-109.83192545 3.91852727 -53.19981197 -8.5486068 0 0 Z " fill="#FEFEFE" transform="translate(1073.7529296875,725.640625)"/>
<path d="M0 0 C1.45802044 1.22600272 2.89539745 2.47692239 4.3125 3.75 C5.07433594 4.41902344 5.83617187 5.08804688 6.62109375 5.77734375 C17.35803963 15.7900437 24.67411345 29.9197894 25.3125 44.75 C25.42464844 46.47476563 25.42464844 46.47476563 25.5390625 48.234375 C26.29684515 64.65436078 20.75494686 80.48003889 10.625 93.5 C3.01383917 101.61587972 -6.19297761 107.2469196 -16.6875 110.75 C-17.77224609 111.11738281 -17.77224609 111.11738281 -18.87890625 111.4921875 C-33.23092744 115.46826927 -47.8453834 112.59563967 -60.75 105.75 C-75.94523455 96.35109333 -84.77191706 82.76849234 -89.6875 65.75 C-93.11263651 46.76000263 -89.58184577 29.29094345 -78.9453125 13.09765625 C-70.60178836 1.86332602 -57.85117919 -6.98855696 -44.0390625 -9.97265625 C-28.54902197 -11.79955472 -12.71732013 -9.5490679 0 0 Z " fill="#FDFDFD" transform="translate(1073.6875,965.25)"/>
<path d="M0 0 C2.72481803 0.64574403 5.34332069 1.42403023 7.98193359 2.36010742 C8.76123734 2.63566467 9.54054108 2.91122192 10.34346008 3.19512939 C11.6081739 3.64574738 11.6081739 3.64574738 12.8984375 4.10546875 C13.78955734 4.42159119 14.68067719 4.73771362 15.59880066 5.06341553 C18.52499155 6.10256657 21.45004727 7.1448694 24.375 8.1875 C25.37054901 8.54159943 26.36609802 8.89569885 27.39181519 9.26052856 C43.44405194 14.97137563 59.45101044 20.79852454 75.41748047 26.74487305 C76.17346024 27.02566711 76.92944 27.30646118 77.70832825 27.59576416 C79.10706442 28.11552989 80.505139 28.63708127 81.90238953 29.16082764 C84.9064905 30.27675077 87.86510749 31.31927205 91 32 C90.36221761 35.51512408 89.47162281 38.80525518 88.31689453 42.18457031 C87.97173294 43.19988831 87.62657135 44.2152063 87.27095032 45.2612915 C86.89536484 46.35584656 86.51977936 47.45040161 86.1328125 48.578125 C85.74171799 49.72633728 85.35062347 50.87454956 84.94767761 52.05755615 C83.89346341 55.15149407 82.83663824 58.24452524 81.77878189 61.33721924 C80.03855573 66.42862842 78.30617164 71.52271659 76.57237434 76.61631775 C75.92637951 78.51386766 75.28002563 80.41129501 74.63365173 82.30871582 C71.15498345 92.52648242 67.7156629 102.7568579 64.3125 113 C64.08298645 113.69049438 63.8534729 114.38098877 63.61700439 115.09240723 C62.40908026 118.7275263 61.203757 122.36349931 60 126 C52.07865532 123.98293941 44.4397476 121.47528768 36.7734375 118.6484375 C35.05454819 118.02094101 35.05454819 118.02094101 33.30093384 117.38076782 C29.6574061 116.04970409 26.01614269 114.71257251 22.375 113.375 C18.79729424 112.06531282 15.21912426 110.75689971 11.64093018 109.44854736 C9.28001043 108.58512644 6.91929097 107.72115767 4.55877686 106.85662842 C-7.27726382 102.52413508 -19.13583139 98.25477017 -31 94 C-29.79353462 88.07580809 -28.26271548 82.40437769 -26.26953125 76.69921875 C-26.00199539 75.92036316 -25.73445953 75.14150757 -25.45881653 74.33905029 C-24.58114447 71.78698164 -23.69680323 69.23727763 -22.8125 66.6875 C-22.19592157 64.89805046 -21.57988332 63.1084147 -20.96435547 61.31860352 C-19.66209043 57.53275268 -18.35771588 53.74763745 -17.05224609 49.96289062 C-13.88961354 40.78437062 -10.76373192 31.59329798 -7.63485718 22.40322876 C-6.02075163 17.66295524 -4.4048001 12.92331116 -2.7890625 8.18359375 C-1.85933262 5.45574361 -0.92966598 2.72787192 0 0 Z " fill="#252525" transform="translate(1159,1804)"/>
<path d="M0 0 C2.72481803 0.64574403 5.34332069 1.42403023 7.98193359 2.36010742 C8.76123734 2.63566467 9.54054108 2.91122192 10.34346008 3.19512939 C11.6081739 3.64574738 11.6081739 3.64574738 12.8984375 4.10546875 C13.78955734 4.42159119 14.68067719 4.73771362 15.59880066 5.06341553 C18.52499155 6.10256657 21.45004727 7.1448694 24.375 8.1875 C25.37054901 8.54159943 26.36609802 8.89569885 27.39181519 9.26052856 C43.44405194 14.97137563 59.45101044 20.79852454 75.41748047 26.74487305 C76.17346024 27.02566711 76.92944 27.30646118 77.70832825 27.59576416 C79.10706442 28.11552989 80.505139 28.63708127 81.90238953 29.16082764 C84.9064905 30.27675077 87.86510749 31.31927205 91 32 C90.36221761 35.51512408 89.47162281 38.80525518 88.31689453 42.18457031 C87.97173294 43.19988831 87.62657135 44.2152063 87.27095032 45.2612915 C86.89536484 46.35584656 86.51977936 47.45040161 86.1328125 48.578125 C85.74171799 49.72633728 85.35062347 50.87454956 84.94767761 52.05755615 C83.89346341 55.15149407 82.83663824 58.24452524 81.77878189 61.33721924 C80.03855573 66.42862842 78.30617164 71.52271659 76.57237434 76.61631775 C75.92637951 78.51386766 75.28002563 80.41129501 74.63365173 82.30871582 C71.15498345 92.52648242 67.7156629 102.7568579 64.3125 113 C64.08298645 113.69049438 63.8534729 114.38098877 63.61700439 115.09240723 C62.40908042 118.72752582 61.20323753 122.36332758 60 126 C49.21928099 123.46427758 38.93466267 119.44550569 28.5625 115.625 C26.61900243 114.9129 24.67531517 114.20131749 22.73144531 113.49023438 C19.76008973 112.40323607 16.78884829 111.31593823 13.81820679 110.22698975 C3.97382623 106.61885602 -5.88651464 103.05550566 -15.75 99.5 C-17.31048279 98.93705967 -18.87094882 98.37407285 -20.43139648 97.81103516 C-23.9540565 96.54011333 -27.47694641 95.26983048 -31 94 C-29.79353462 88.07580809 -28.26271548 82.40437769 -26.26953125 76.69921875 C-26.00199539 75.92036316 -25.73445953 75.14150757 -25.45881653 74.33905029 C-24.58114447 71.78698164 -23.69680323 69.23727763 -22.8125 66.6875 C-22.19592157 64.89805046 -21.57988332 63.1084147 -20.96435547 61.31860352 C-19.66209043 57.53275268 -18.35771588 53.74763745 -17.05224609 49.96289062 C-13.88961354 40.78437062 -10.76373192 31.59329798 -7.63485718 22.40322876 C-6.02075163 17.66295524 -4.4048001 12.92331116 -2.7890625 8.18359375 C-1.85933262 5.45574361 -0.92966598 2.72787192 0 0 Z " fill="#252525" transform="translate(844,212)"/>
</svg>
